<svg width="20" height="18" viewBox="0 0 20 18" fill="none" xmlns="http://www.w3.org/2000/svg">
<path d="M7 17V8H2.59961C2.03956 8 1.75981 8 1.5459 8.10899C1.35774 8.20487 1.20487 8.35786 1.10899 8.54602C1 8.75993 1 9.03992 1 9.59998V17H7ZM7 17H13M7 17V2.59998C7 2.03992 7 1.75993 7.10899 1.54602C7.20487 1.35786 7.35774 1.20487 7.5459 1.10899C7.75981 1 8.03956 1 8.59961 1H11.3996C11.9597 1 12.2405 1 12.4544 1.10899C12.6425 1.20487 12.7948 1.35786 12.8906 1.54602C12.9996 1.75993 13 2.03992 13 2.59998V17M13 17L19 17V6.59998C19 6.03992 18.9996 5.75993 18.8906 5.54602C18.7948 5.35786 18.6425 5.20487 18.4544 5.10899C18.2405 5 17.9601 5 17.4 5H13V17Z" stroke="black" stroke-linecap="round" stroke-linejoin="round"/>
</svg>
