<svg width="20" height="20" viewBox="0 0 20 20" fill="none" xmlns="http://www.w3.org/2000/svg">
<path d="M1 9V17.4C1 17.9601 1 18.2401 1.10899 18.454C1.20487 18.6422 1.35774 18.7951 1.5459 18.891C1.75981 19 2.03956 19 2.59961 19H13.3996C13.9597 19 14.2405 19 14.4544 18.891C14.6425 18.7951 14.7948 18.6422 14.8906 18.454C14.9996 18.2401 14.9996 17.9601 14.9996 17.4V10.6C14.9996 10.04 14.9996 9.75993 14.8906 9.54602C14.7948 9.35786 14.6425 9.20487 14.4544 9.10899C14.2405 9 13.9601 9 13.4 9H1ZM1 9V8.59998C1 8.03992 1 7.75993 1.10899 7.54602C1.20487 7.35786 1.35774 7.20487 1.5459 7.10899C1.75981 7 2.03956 7 2.59961 7H5.66152C5.9487 7 6.09288 7 6.22511 7.03701C6.34224 7.0698 6.45201 7.12365 6.5498 7.19598C6.66021 7.27764 6.74849 7.39099 6.9248 7.61768L7.99993 8.99998M15 13H17.4C17.9601 13 18.2405 13 18.4544 12.891C18.6425 12.7951 18.7948 12.6422 18.8906 12.454C18.9996 12.2401 18.9996 11.9601 18.9996 11.4V4.60001C18.9996 4.03996 18.9996 3.75993 18.8906 3.54602C18.7948 3.35786 18.6425 3.20487 18.4544 3.10899C18.2405 3 17.9601 3 17.4 3H5M5 3V7M5 3V2.59998C5 2.03992 5 1.75993 5.10899 1.54602C5.20487 1.35786 5.35774 1.20487 5.5459 1.10899C5.75981 1 6.03956 1 6.59961 1H9.66152C9.9487 1 10.0929 1 10.2251 1.03701C10.3422 1.0698 10.452 1.12365 10.5498 1.19598C10.6602 1.27764 10.7485 1.39099 10.9248 1.61768L11.9999 2.99998" stroke="black" stroke-width="1" stroke-linecap="round" stroke-linejoin="round"/>
</svg>
