<svg width="190" height="190" viewBox="0 0 190 219" fill="none" xmlns="http://www.w3.org/2000/svg">
<circle cx="95" cy="95" r="95" fill="#7076FE" fill-opacity="0.3"/>
<path d="M148 160C151.314 160 154.032 157.307 153.695 154.01C153.114 148.317 151.707 142.728 149.509 137.422C146.544 130.263 142.198 123.759 136.719 118.281C131.241 112.802 124.737 108.456 117.578 105.491C110.42 102.526 102.748 101 95 101C87.252 101 79.5799 102.526 72.4217 105.491C65.2635 108.456 58.7594 112.802 53.2807 118.281C47.802 123.759 43.4561 130.263 40.4911 137.422C38.293 142.728 36.8858 148.317 36.3048 154.01C35.9684 157.307 38.6863 160 42 160L95 160H148Z" fill="#7076FE"/>
<circle cx="95" cy="53" r="35" fill="#7076FE"/>
</svg>