<svg width="20" height="20" viewBox="0 0 24 24" fill="none" xmlns="http://www.w3.org/2000/svg">
<path d="M18 16.6851V7.19995V7.19666C18 6.07875 18 5.51945 17.7822 5.09204C17.5905 4.71572 17.2841 4.40973 16.9078 4.21799C16.48 4 15.9203 4 14.8002 4H9.2002C8.08009 4 7.51962 4 7.0918 4.21799C6.71547 4.40973 6.40973 4.71572 6.21799 5.09204C6 5.51986 6 6.07985 6 7.19995V16.6851C6 18.0462 6 18.7268 6.20412 19.1432C6.58245 19.9151 7.41157 20.3589 8.26367 20.2455C8.7234 20.1843 9.28964 19.8069 10.4221 19.0519L10.4243 19.0504C10.8735 18.7509 11.0983 18.6011 11.3332 18.5181C11.7644 18.3656 12.2348 18.3656 12.666 18.5181C12.9013 18.6012 13.1266 18.7515 13.5773 19.0519L13.5773 19.0519C14.7098 19.8069 15.2768 20.1843 15.7366 20.2455C16.5886 20.3589 17.4176 19.9151 17.7959 19.1432C18 18.7268 18 18.0463 18 16.6855V16.6851Z" stroke="#536471" stroke-width="2" stroke-linecap="round" stroke-linejoin="round"/>
</svg>
