<svg width="20" height="20" viewBox="0 0 24 24" fill="none" xmlns="http://www.w3.org/2000/svg">
<path d="M7.51025 19.8018C8.83174 20.5639 10.365 21 12.0001 21C16.9707 21 21 16.9706 21 12C21 7.02944 16.9706 3 12 3C7.02944 3 3 7.02944 3 12C3 13.6351 3.43604 15.1684 4.19819 16.4899L4.19883 16.491C4.2737 16.6208 4.31123 16.6859 4.32816 16.7471C4.34396 16.8043 4.34918 16.8553 4.34513 16.9144C4.34084 16.9772 4.31914 17.0423 4.27629 17.1708L4.27468 17.1757L3.50586 19.4821L3.50526 19.4839C3.34281 19.9713 3.26154 20.2151 3.3194 20.3773C3.36981 20.5187 3.4812 20.63 3.62256 20.6804C3.785 20.7383 4.02953 20.6569 4.51807 20.494L6.82454 19.7252L6.82611 19.7247C6.9568 19.6811 7.02212 19.6594 7.08542 19.655C7.14458 19.651 7.19578 19.6561 7.25293 19.6719C7.31434 19.6888 7.3797 19.7265 7.51025 19.8018Z" stroke="#536471" stroke-width="2" stroke-linecap="round" stroke-linejoin="round"/>
</svg>
