<svg width="22" height="22" viewBox="0 0 22 22" fill="none" xmlns="http://www.w3.org/2000/svg">
<path d="M11.0002 19.8458C10.716 19.8458 10.441 19.8092 10.2118 19.7267C6.71016 18.5258 1.146 14.2633 1.146 7.96584C1.146 4.75751 3.74016 2.15417 6.93016 2.15417C8.47933 2.15417 9.92766 2.75917 11.0002 3.84084C12.0727 2.75917 13.521 2.15417 15.0702 2.15417C18.2602 2.15417 20.8543 4.76667 20.8543 7.96584C20.8543 14.2725 15.2902 18.5258 11.7885 19.7267C11.5593 19.8092 11.2843 19.8458 11.0002 19.8458ZM6.93016 3.52917C4.501 3.52917 2.521 5.51834 2.521 7.96584C2.521 14.2267 8.5435 17.71 10.661 18.4342C10.826 18.4892 11.1835 18.4892 11.3485 18.4342C13.4568 17.71 19.4885 14.2358 19.4885 7.96584C19.4885 5.51834 17.5085 3.52917 15.0793 3.52917C13.686 3.52917 12.3935 4.18001 11.5593 5.30751C11.3027 5.65584 10.716 5.65584 10.4593 5.30751C9.60683 4.17084 8.3235 3.52917 6.93016 3.52917Z" fill="black"/>
</svg>
