<svg width="22" height="22" viewBox="0 0 22 22" fill="none" xmlns="http://www.w3.org/2000/svg">
<path d="M7.79183 17.4166H7.3335C3.66683 17.4166 1.8335 16.5 1.8335 11.9166V7.33331C1.8335 3.66665 3.66683 1.83331 7.3335 1.83331H14.6668C18.3335 1.83331 20.1668 3.66665 20.1668 7.33331V11.9166C20.1668 15.5833 18.3335 17.4166 14.6668 17.4166H14.2085C13.9243 17.4166 13.6493 17.5541 13.4752 17.7833L12.1002 19.6166C11.4952 20.4233 10.5052 20.4233 9.90016 19.6166L8.52516 17.7833C8.3785 17.5816 8.03933 17.4166 7.79183 17.4166Z" stroke="black" stroke-width="1.5" stroke-miterlimit="10" stroke-linecap="round" stroke-linejoin="round"/>
<path d="M14.6633 10.0833H14.6715" stroke="black" stroke-width="2" stroke-linecap="round" stroke-linejoin="round"/>
<path d="M10.9958 10.0833H11.004" stroke="black" stroke-width="2" stroke-linecap="round" stroke-linejoin="round"/>
<path d="M7.3283 10.0833H7.33653" stroke="black" stroke-width="2" stroke-linecap="round" stroke-linejoin="round"/>
</svg>
