<svg width="23" height="23" viewBox="0 0 23 23" fill="none" xmlns="http://www.w3.org/2000/svg">
<path d="M11.5001 13.7185C9.49906 13.7185 7.87085 12.0912 7.87085 10.0902C7.87085 8.08923 9.50002 6.45911 11.5001 6.45911C13.5001 6.45911 15.1293 8.08827 15.1293 10.0883C15.1293 12.0884 13.5001 13.7156 11.5001 13.7156V13.7185ZM11.5001 7.89852C10.2926 7.89852 9.30835 8.88177 9.30835 10.0902C9.30835 11.2987 10.2926 12.28 11.5001 12.28C12.7076 12.28 13.6918 11.2977 13.6918 10.0893C13.6918 8.88082 12.7076 7.89661 11.5001 7.89661V7.89852Z" fill="#5B7083"/>
<path d="M19.8298 10.2445C19.8298 5.65413 16.0923 1.91663 11.5 1.91663C6.90767 1.91663 3.17017 5.65413 3.17017 10.2445C3.17017 12.0673 3.74804 13.798 4.84054 15.2499L4.84342 15.248L4.85012 15.2624C6.41029 17.2461 10.8665 20.7795 11.0553 20.928C11.1876 21.0335 11.3448 21.0842 11.501 21.0842C11.6572 21.0842 11.8143 21.0335 11.9466 20.929C12.1354 20.7805 16.5916 17.249 18.1518 15.2633L18.1585 15.2499L18.1604 15.2518C19.2529 13.799 19.8298 12.0702 19.8298 10.2465V10.2445ZM11.5 19.4445C10.327 18.4958 7.16833 15.8843 5.98383 14.3798C5.083 13.1818 4.60767 11.752 4.60767 10.2474C4.60767 6.44667 7.70021 3.35413 11.5 3.35413C15.2998 3.35413 18.3923 6.44571 18.3923 10.2445C18.3923 11.7491 17.916 13.179 17.0162 14.3778C15.8317 15.8824 12.673 18.4929 11.5 19.4426V19.4445Z" fill="#5B7083"/>
</svg>
