<svg width="68" height="76" viewBox="0 0 68 76" fill="none" xmlns="http://www.w3.org/2000/svg">
<circle cx="34.0524" cy="16.5417" r="11.9141" stroke="black" stroke-width="7.33173"/>
<mask id="path-2-inside-1_101_13" fill="white">
<path fill-rule="evenodd" clip-rule="evenodd" d="M67.9617 72.4099C67.9441 51.6743 52.7691 34.8708 34.0524 34.8708C15.3248 34.8708 0.143127 51.6937 0.143127 72.4459C0.143127 73.3705 0.173268 74.2874 0.232519 75.1953H67.8723C67.9308 74.2992 67.9609 73.3944 67.9617 72.4819V72.4099Z"/>
</mask>
<path d="M67.9617 72.4099H75.2934L75.2934 72.4037L67.9617 72.4099ZM0.232519 75.1953L-7.08365 75.6728L-6.63633 82.527H0.232519V75.1953ZM67.8723 75.1953V82.527H74.7411L75.1885 75.6727L67.8723 75.1953ZM67.9617 72.4819L75.2934 72.4881V72.4819H67.9617ZM75.2934 72.4037C75.273 48.3469 57.5053 27.539 34.0524 27.539V42.2025C48.033 42.2025 60.6152 55.0016 60.6299 72.4161L75.2934 72.4037ZM34.0524 27.539C10.5857 27.539 -7.18861 48.3707 -7.18861 72.4459H7.47486C7.47486 55.0167 20.0639 42.2025 34.0524 42.2025V27.539ZM-7.18861 72.4459C-7.18861 73.5299 -7.15327 74.606 -7.08365 75.6728L7.54869 74.7178C7.49981 73.9688 7.47486 73.2112 7.47486 72.4459H-7.18861ZM0.232519 82.527H67.8723V67.8636H0.232519V82.527ZM75.1885 75.6727C75.2572 74.6199 75.2925 73.5579 75.2934 72.4881L60.6299 72.4757C60.6293 73.2308 60.6044 73.9785 60.5561 74.7179L75.1885 75.6727ZM75.2934 72.4819V72.4099H60.6299V72.4819H75.2934Z" fill="black" mask="url(#path-2-inside-1_101_13)"/>
</svg>
